<svg width="200" height="151" viewBox="0 0 200 151" fill="none" xmlns="http://www.w3.org/2000/svg">
<rect y="0.999146" width="200" height="149.637" rx="10" fill="#D9D9D9"/>
<path d="M68.9395 144.909L65.7754 136.753H55.4746L52.3281 144.909H49.3047L59.3594 119.104H62.0488L72.0332 144.909H68.9395ZM64.8789 134.098L61.873 125.995C61.8027 125.784 61.6855 125.438 61.5215 124.958C61.3691 124.477 61.2109 123.979 61.0469 123.464C60.8828 122.948 60.748 122.532 60.6426 122.216C60.5254 122.696 60.3965 123.177 60.2559 123.657C60.127 124.126 59.998 124.565 59.8691 124.975C59.7402 125.374 59.6289 125.714 59.5352 125.995L56.4766 134.098H64.8789ZM78.0801 117.557V124.395C78.0801 125.18 78.0566 125.942 78.0098 126.68C77.9746 127.419 77.9453 127.993 77.9219 128.403H78.0801C78.6074 127.536 79.3691 126.803 80.3652 126.206C81.3613 125.608 82.6328 125.309 84.1797 125.309C86.5938 125.309 88.5156 126.147 89.9453 127.823C91.3867 129.487 92.1074 131.966 92.1074 135.259C92.1074 137.427 91.7793 139.255 91.123 140.743C90.4668 142.231 89.541 143.356 88.3457 144.118C87.1504 144.88 85.7383 145.26 84.1094 145.26C82.5859 145.26 81.332 144.979 80.3477 144.417C79.375 143.843 78.625 143.145 78.0977 142.325H77.8691L77.2715 144.909H75.1621V117.557H78.0801ZM83.7051 127.753C82.3105 127.753 81.2031 128.028 80.3828 128.579C79.5625 129.118 78.9707 129.938 78.6074 131.04C78.2559 132.13 78.0801 133.512 78.0801 135.188V135.346C78.0801 137.772 78.4844 139.63 79.293 140.919C80.1016 142.196 81.5723 142.835 83.7051 142.835C85.498 142.835 86.8398 142.178 87.7305 140.866C88.6328 139.553 89.084 137.678 89.084 135.241C89.084 132.757 88.6387 130.887 87.748 129.634C86.8691 128.38 85.5215 127.753 83.7051 127.753ZM113.816 135.241C113.816 136.823 113.611 138.235 113.201 139.477C112.791 140.719 112.199 141.768 111.426 142.624C110.652 143.479 109.715 144.135 108.613 144.593C107.523 145.038 106.287 145.26 104.904 145.26C103.615 145.26 102.432 145.038 101.354 144.593C100.287 144.135 99.3613 143.479 98.5762 142.624C97.8027 141.768 97.1992 140.719 96.7656 139.477C96.3438 138.235 96.1328 136.823 96.1328 135.241C96.1328 133.132 96.4902 131.339 97.2051 129.862C97.9199 128.374 98.9395 127.243 100.264 126.469C101.6 125.684 103.188 125.292 105.027 125.292C106.785 125.292 108.32 125.684 109.633 126.469C110.957 127.255 111.982 128.391 112.709 129.88C113.447 131.356 113.816 133.143 113.816 135.241ZM99.1562 135.241C99.1562 136.788 99.3613 138.13 99.7715 139.266C100.182 140.403 100.814 141.282 101.67 141.903C102.525 142.524 103.627 142.835 104.975 142.835C106.311 142.835 107.406 142.524 108.262 141.903C109.129 141.282 109.768 140.403 110.178 139.266C110.588 138.13 110.793 136.788 110.793 135.241C110.793 133.706 110.588 132.382 110.178 131.268C109.768 130.143 109.135 129.276 108.279 128.667C107.424 128.057 106.316 127.753 104.957 127.753C102.953 127.753 101.482 128.415 100.545 129.739C99.6191 131.063 99.1562 132.897 99.1562 135.241ZM134.77 125.643V144.909H132.379L131.957 142.202H131.799C131.4 142.87 130.885 143.432 130.252 143.889C129.619 144.346 128.904 144.686 128.107 144.909C127.322 145.143 126.484 145.26 125.594 145.26C124.07 145.26 122.793 145.014 121.762 144.522C120.73 144.03 119.951 143.268 119.424 142.237C118.908 141.206 118.65 139.882 118.65 138.264V125.643H121.604V138.053C121.604 139.659 121.967 140.86 122.693 141.657C123.42 142.442 124.527 142.835 126.016 142.835C127.445 142.835 128.582 142.565 129.426 142.026C130.281 141.487 130.896 140.696 131.271 139.653C131.646 138.598 131.834 137.309 131.834 135.786V125.643H134.77ZM147.162 142.87C147.643 142.87 148.135 142.829 148.639 142.747C149.143 142.665 149.553 142.565 149.869 142.448V144.716C149.529 144.868 149.055 144.997 148.445 145.102C147.848 145.208 147.262 145.26 146.688 145.26C145.668 145.26 144.742 145.085 143.91 144.733C143.078 144.37 142.41 143.76 141.906 142.905C141.414 142.05 141.168 140.866 141.168 139.354V127.928H138.426V126.505L141.186 125.362L142.346 121.178H144.104V125.643H149.746V127.928H144.104V139.266C144.104 140.473 144.379 141.376 144.93 141.973C145.492 142.571 146.236 142.87 147.162 142.87Z" fill="black"/>
<ellipse cx="99.5217" cy="53.0883" rx="56.5217" ry="41.7043" fill="#A5D5D1"/>
<path d="M109.069 46.71C109.069 49.23 108.259 53.58 106.639 59.76C105.019 65.88 104.209 69.9 104.209 71.82C104.209 73.68 104.479 74.61 105.019 74.61C105.379 74.61 106.759 74.04 109.159 72.9L110.239 72.36L111.769 75.51C111.229 75.99 110.509 76.59 109.609 77.31C108.709 78.03 107.029 79.02 104.569 80.28C102.109 81.48 99.8293 82.08 97.7293 82.08C95.6293 82.08 93.9793 81.45 92.7793 80.19C91.5793 78.87 90.9793 77.13 90.9793 74.97C90.9793 72.75 91.7293 68.85 93.2293 63.27C94.7293 57.63 95.4793 53.97 95.4793 52.29C95.4793 49.77 94.6993 47.4 93.1393 45.18L92.3293 44.1L92.4193 42.93C95.5993 42.03 100.759 41.58 107.899 41.58C108.679 42.48 109.069 44.19 109.069 46.71ZM98.8093 31.77C97.6093 30.57 97.0093 28.98 97.0093 27C97.0093 25.02 97.8193 23.28 99.4393 21.78C101.119 20.28 103.039 19.53 105.199 19.53C107.359 19.53 109.039 20.13 110.239 21.33C111.439 22.53 112.039 24.12 112.039 26.1C112.039 28.02 111.169 29.73 109.429 31.23C107.749 32.73 105.859 33.48 103.759 33.48C101.659 33.48 100.009 32.91 98.8093 31.77Z" fill="black"/>
</svg>
