<svg width="109" height="85" viewBox="0 0 109 85" fill="none" xmlns="http://www.w3.org/2000/svg">
<rect width="109" height="85" fill="#D4C4BE"/>
<circle cx="54.5" cy="42.5" r="39.5" fill="url(#paint0_linear_15_50)"/>
<g filter="url(#filter0_d_15_50)">
<mask id="path-2-inside-1_15_50" fill="white">
<path fill-rule="evenodd" clip-rule="evenodd" d="M48.7468 33.6102C49.015 34.1601 49.8689 34.094 49.8689 33.4822V33.4822C49.8689 28.1818 46.454 23.885 42.2414 23.885C38.0288 23.885 34.6138 28.1818 34.6138 33.4822V33.4822C34.6138 34.094 35.4677 34.1601 35.7359 33.6102C37.0773 30.8604 39.4891 29.0264 42.2414 29.0264C44.9936 29.0264 47.4054 30.8604 48.7468 33.6102Z"/>
</mask>
<path fill-rule="evenodd" clip-rule="evenodd" d="M48.7468 33.6102C49.015 34.1601 49.8689 34.094 49.8689 33.4822V33.4822C49.8689 28.1818 46.454 23.885 42.2414 23.885C38.0288 23.885 34.6138 28.1818 34.6138 33.4822V33.4822C34.6138 34.094 35.4677 34.1601 35.7359 33.6102C37.0773 30.8604 39.4891 29.0264 42.2414 29.0264C44.9936 29.0264 47.4054 30.8604 48.7468 33.6102Z" fill="#242335"/>
<path d="M48.7468 33.6102L47.848 34.0486L48.7468 33.6102ZM42.2414 24.885C45.6997 24.885 48.8689 28.5077 48.8689 33.4822H50.8689C50.8689 27.856 47.2082 22.885 42.2414 22.885V24.885ZM35.6138 33.4822C35.6138 28.5077 38.783 24.885 42.2414 24.885V22.885C37.2745 22.885 33.6138 27.856 33.6138 33.4822H35.6138ZM36.6347 34.0486C37.8559 31.5453 39.9688 30.0264 42.2414 30.0264V28.0264C39.0095 28.0264 36.2988 30.1755 34.8372 33.1717L36.6347 34.0486ZM42.2414 30.0264C44.514 30.0264 46.6268 31.5453 47.848 34.0486L49.6455 33.1717C48.1839 30.1755 45.4732 28.0264 42.2414 28.0264V30.0264ZM33.6138 33.4822C33.6138 33.8845 33.7617 34.2642 34.0469 34.5473C34.3192 34.8176 34.6611 34.9461 34.9765 34.977C35.5936 35.0376 36.298 34.7389 36.6347 34.0486L34.8372 33.1717C34.9057 33.0314 35.0489 32.9745 35.172 32.9866C35.2404 32.9933 35.3521 33.0249 35.4559 33.128C35.5726 33.2438 35.6138 33.3858 35.6138 33.4822H33.6138ZM48.8689 33.4822C48.8689 33.3858 48.9101 33.2438 49.0268 33.128C49.1306 33.0249 49.2423 32.9933 49.3107 32.9866C49.4338 32.9745 49.5771 33.0314 49.6455 33.1717L47.848 34.0486C48.1847 34.7389 48.8891 35.0376 49.5062 34.977C49.8216 34.9461 50.1635 34.8176 50.4359 34.5473C50.721 34.2642 50.8689 33.8845 50.8689 33.4822H48.8689Z" fill="black" mask="url(#path-2-inside-1_15_50)"/>
</g>
<g filter="url(#filter1_d_15_50)">
<mask id="path-4-inside-2_15_50" fill="white">
<path fill-rule="evenodd" clip-rule="evenodd" d="M75.8066 33.6102C76.0748 34.1601 76.9288 34.094 76.9288 33.4822V33.4822C76.9288 28.1818 73.5138 23.885 69.3012 23.885C65.0886 23.885 61.6736 28.1818 61.6736 33.4822V33.4822C61.6736 34.094 62.5275 34.1601 62.7958 33.6102C64.1372 30.8604 66.5489 29.0264 69.3012 29.0264C72.0534 29.0264 74.4652 30.8604 75.8066 33.6102Z"/>
</mask>
<path fill-rule="evenodd" clip-rule="evenodd" d="M75.8066 33.6102C76.0748 34.1601 76.9288 34.094 76.9288 33.4822V33.4822C76.9288 28.1818 73.5138 23.885 69.3012 23.885C65.0886 23.885 61.6736 28.1818 61.6736 33.4822V33.4822C61.6736 34.094 62.5275 34.1601 62.7958 33.6102C64.1372 30.8604 66.5489 29.0264 69.3012 29.0264C72.0534 29.0264 74.4652 30.8604 75.8066 33.6102Z" fill="#242335"/>
<path d="M75.8066 33.6102L74.9078 34.0486L75.8066 33.6102ZM69.3012 24.885C72.7595 24.885 75.9288 28.5077 75.9288 33.4822H77.9288C77.9288 27.856 74.2681 22.885 69.3012 22.885V24.885ZM62.6736 33.4822C62.6736 28.5077 65.8429 24.885 69.3012 24.885V22.885C64.3343 22.885 60.6736 27.856 60.6736 33.4822H62.6736ZM63.6945 34.0486C64.9157 31.5453 67.0286 30.0264 69.3012 30.0264V28.0264C66.0693 28.0264 63.3586 30.1755 61.897 33.1717L63.6945 34.0486ZM69.3012 30.0264C71.5738 30.0264 73.6866 31.5453 74.9078 34.0486L76.7053 33.1717C75.2437 30.1755 72.533 28.0264 69.3012 28.0264V30.0264ZM60.6736 33.4822C60.6736 33.8845 60.8215 34.2642 61.1067 34.5473C61.379 34.8176 61.7209 34.9461 62.0364 34.977C62.6534 35.0376 63.3578 34.7389 63.6945 34.0486L61.897 33.1717C61.9655 33.0314 62.1088 32.9745 62.2318 32.9866C62.3002 32.9933 62.4119 33.0249 62.5157 33.128C62.6324 33.2438 62.6736 33.3858 62.6736 33.4822H60.6736ZM75.9288 33.4822C75.9288 33.3858 75.9699 33.2438 76.0866 33.128C76.1904 33.0249 76.3021 32.9933 76.3705 32.9866C76.4936 32.9745 76.6369 33.0314 76.7053 33.1717L74.9078 34.0486C75.2446 34.7389 75.9489 35.0376 76.566 34.977C76.8814 34.9461 77.2234 34.8176 77.4957 34.5473C77.7808 34.2642 77.9288 33.8845 77.9288 33.4822H75.9288Z" fill="black" mask="url(#path-4-inside-2_15_50)"/>
</g>
<path fill-rule="evenodd" clip-rule="evenodd" d="M38.9724 42.5908C38.6174 42.5908 38.2724 42.6332 37.942 42.7133C37.4187 42.2684 36.7407 42 36 42C34.3431 42 33 43.3431 33 45C33 45.6389 33.1997 46.2312 33.5402 46.7178C33.9746 56.337 43.1924 64.0207 54.5 64.0207C65.8077 64.0207 75.0256 56.3369 75.4599 46.7177C75.8003 46.2311 76 45.6389 76 45C76 43.3431 74.6569 42 73 42C72.2394 42 71.5448 42.2831 71.0161 42.7496C70.6437 42.6461 70.2513 42.5908 69.846 42.5908H38.9724Z" fill="#242335"/>
<defs>
<filter id="filter0_d_15_50" x="30.6138" y="23.885" width="23.2552" height="18.0998" filterUnits="userSpaceOnUse" color-interpolation-filters="sRGB">
<feFlood flood-opacity="0" result="BackgroundImageFix"/>
<feColorMatrix in="SourceAlpha" type="matrix" values="0 0 0 0 0 0 0 0 0 0 0 0 0 0 0 0 0 0 127 0" result="hardAlpha"/>
<feOffset dy="4"/>
<feGaussianBlur stdDeviation="2"/>
<feComposite in2="hardAlpha" operator="out"/>
<feColorMatrix type="matrix" values="0 0 0 0 0.505882 0 0 0 0 0.937255 0 0 0 0 0.819608 0 0 0 1 0"/>
<feBlend mode="normal" in2="BackgroundImageFix" result="effect1_dropShadow_15_50"/>
<feBlend mode="normal" in="SourceGraphic" in2="effect1_dropShadow_15_50" result="shape"/>
</filter>
<filter id="filter1_d_15_50" x="57.6736" y="23.885" width="23.2552" height="18.0998" filterUnits="userSpaceOnUse" color-interpolation-filters="sRGB">
<feFlood flood-opacity="0" result="BackgroundImageFix"/>
<feColorMatrix in="SourceAlpha" type="matrix" values="0 0 0 0 0 0 0 0 0 0 0 0 0 0 0 0 0 0 127 0" result="hardAlpha"/>
<feOffset dy="4"/>
<feGaussianBlur stdDeviation="2"/>
<feComposite in2="hardAlpha" operator="out"/>
<feColorMatrix type="matrix" values="0 0 0 0 0.505882 0 0 0 0 0.937255 0 0 0 0 0.819608 0 0 0 1 0"/>
<feBlend mode="normal" in2="BackgroundImageFix" result="effect1_dropShadow_15_50"/>
<feBlend mode="normal" in="SourceGraphic" in2="effect1_dropShadow_15_50" result="shape"/>
</filter>
<linearGradient id="paint0_linear_15_50" x1="54.5" y1="3" x2="54.5" y2="82" gradientUnits="userSpaceOnUse">
<stop offset="0.31" stop-color="#81EFD1"/>
<stop offset="0.685" stop-color="#737373" stop-opacity="0.65"/>
<stop offset="1" stop-color="#8A9CEA"/>
</linearGradient>
</defs>
</svg>
